# xmcd
#
# Track frame offsets: 
#        153
#        15149
#        38525
#        75675
#        109729
#        132794
#        154664
#        172520
#        189368
#        203438
#        227556
#        250374
#
# Disc length: 3557 seconds
#
# Revision: 0
# Processed by: cddbd v1.5.2PL0 Copyright (c) Steve Scherf et al.
# Submitted via: ExactAudioCopy v0.99pb3
#
DISCID=780de30c
DTITLE=Roy Milton - Instant Groove
DYEAR=2003
DGENRE=Blues
TTITLE0=RM Blues (take 2)
TTITLE1=Night And Day (take 2)
TTITLE2=Instant Groove
TTITLE3=Information Blues
TTITLE4=Cold Blooded Woman (take 2)
TTITLE5=Early This Morning
TTITLE6=Cryin' Won't Help You (take 2)
TTITLE7=Hush!
TTITLE8=RM Blues (take 1)
TTITLE9=Night And Day (take 1)
TTITLE10=Cold Blooded Woman (take 1)
TTITLE11=Cryin' Won't Help You (take 1)
EXTD=
EXTT0=
EXTT1=
EXTT2=
EXTT3=
EXTT4=
EXTT5=
EXTT6=
EXTT7=
EXTT8=
EXTT9=
EXTT10=
EXTT11=
PLAYORDER=
